HIERARCHY
ROOT hips
{
  OFFSET 0 10.6860622 2.3727825e-15
  CHANNELS 6 Xposition Yposition Zposition Yrotation Xrotation Zrotation
  JOINT leftUpperLeg
  {
    OFFSET 0.6642549969 -0.9402397400000004 0
    CHANNELS 3 Yrotation Xrotation Zrotation
    JOINT leftLowerLeg
    {
      OFFSET 0 -3.997221335632195 0
      CHANNELS 3 Yrotation Xrotation Zrotation
      JOINT leftFoot
      {
        OFFSET -0.13777839790000004 -4.6145792000000005 -0.22186036399999998
        CHANNELS 3 Yrotation Xrotation Zrotation
        JOINT leftToes
        {
          OFFSET -0.03777410834999995 -0.9130806927000008 0.85230013
          CHANNELS 3 Yrotation Xrotation Zrotation
          End Site
          {
            OFFSET -0.03777410834999995 -0.9130806927000008 0.85230013
          }
        }
      }
    }
  }
  JOINT rightUpperLeg
  {
    OFFSET -0.6642778626 -0.9402397400000004 0
    CHANNELS 3 Yrotation Xrotation Zrotation
    JOINT rightLowerLeg
    {
      OFFSET 0 -3.997221452859387 0
      CHANNELS 3 Yrotation Xrotation Zrotation
      JOINT rightFoot
      {
        OFFSET 0.1377926176 -4.6145792000000005 -0.22185782299999995
        CHANNELS 3 Yrotation Xrotation Zrotation
        JOINT rightToes
        {
          OFFSET 0.037780746850000047 -0.9130806927000008 0.85230167
          CHANNELS 3 Yrotation Xrotation Zrotation
          End Site
          {
            OFFSET 0.037780746850000047 -0.9130806927000008 0.85230167
          }
        }
      }
    }
  }
  JOINT spine
  {
    OFFSET 0 0.13988381660000015 0
    CHANNELS 3 Yrotation Xrotation Zrotation
    JOINT chest
    {
      OFFSET 0 0.6191039003973773 0
      CHANNELS 3 Yrotation Xrotation Zrotation
      JOINT upperChest
      {
        OFFSET 0 0.9855186130586943 0
        CHANNELS 3 Yrotation Xrotation Zrotation
        JOINT leftShoulder
        {
          OFFSET 0.1807663869 1.5087829790000005 0
          CHANNELS 3 Yrotation Xrotation Zrotation
          JOINT leftUpperArm
          {
            OFFSET 0.5985063006419806 0 0
            CHANNELS 3 Yrotation Xrotation Zrotation
            JOINT leftLowerArm
            {
              OFFSET 2.2993332369501065 0 0
              CHANNELS 3 Yrotation Xrotation Zrotation
              JOINT leftHand
              {
                OFFSET 2.395047042602395 0 0
                CHANNELS 3 Yrotation Xrotation Zrotation
                JOINT leftIndexProximal
                {
                  OFFSET 0.5766295810000004 0.04556643899499946 0.17265095988184
                  CHANNELS 3 Yrotation Xrotation Zrotation
                  JOINT leftIndexIntermediate
                  {
                    OFFSET 0.2957229000000008 -0.019352197700001517 -0.007932640616999987
                    CHANNELS 3 Yrotation Xrotation Zrotation
                    JOINT leftIndexDistal
                    {
                      OFFSET 0.19008243099999922 -0.012484908149998475 -0.002786250786000012
                      CHANNELS 3 Yrotation Xrotation Zrotation
                      End Site
                      {
                        OFFSET 0.19008243099999922 -0.012484908149998475 -0.002786250786000012
                      }
                    }
                  }
                }
                JOINT leftMiddleProximal
                {
                  OFFSET 0.5834975091000001 0.0524350405149987 0.02204081888183999
                  CHANNELS 3 Yrotation Xrotation Zrotation
                  JOINT leftMiddleIntermediate
                  {
                    OFFSET 0.33880573540000003 -0.019871473270000717 -0.00000971183179999946
                    CHANNELS 3 Yrotation Xrotation Zrotation
                    JOINT leftMiddleDistal
                    {
                      OFFSET 0.20676022730000088 -0.012221336379999448 0.0001471936708000235
                      CHANNELS 3 Yrotation Xrotation Zrotation
                      End Site
                      {
                        OFFSET 0.20676022730000088 -0.012221336379999448 0.0001471936708000235
                      }
                    }
                  }
                }
                JOINT leftLittleProximal
                {
                  OFFSET 0.5344154683999995 -0.012880921405001189 -0.24414037221816004
                  CHANNELS 3 Yrotation Xrotation Zrotation
                  JOINT leftLittleIntermediate
                  {
                    OFFSET 0.21758961730000093 -0.011650919939999227 0.011893592810000034
                    CHANNELS 3 Yrotation Xrotation Zrotation
                    JOINT leftLittleDistal
                    {
                      OFFSET 0.1475273964999999 -0.008152365682999818 0.006001092492999946
                      CHANNELS 3 Yrotation Xrotation Zrotation
                      End Site
                      {
                        OFFSET 0.1475273964999999 -0.008152365682999818 0.006001092492999946
                      }
                    }
                  }
                }
                JOINT leftRingProximal
                {
                  OFFSET 0.5799399463000003 0.026911854694997794 -0.12150566991816003
                  CHANNELS 3 Yrotation Xrotation Zrotation
                  JOINT leftRingIntermediate
                  {
                    OFFSET 0.26167887460000006 -0.013480186499999602 0.010996293000000053
                    CHANNELS 3 Yrotation Xrotation Zrotation
                    JOINT leftRingDistal
                    {
                      OFFSET 0.17667108799999987 -0.008990287899999228 0.0055541023999999065
                      CHANNELS 3 Yrotation Xrotation Zrotation
                      End Site
                      {
                        OFFSET 0.17667108799999987 -0.008990287899999228 0.0055541023999999065
                      }
                    }
                  }
                }
                JOINT leftThumbProximal
                {
                  OFFSET 0.11018806699999972 -0.09448718900500053 0.17047963138184
                  CHANNELS 3 Yrotation Xrotation Zrotation
                  JOINT leftThumbIntermediate
                  {
                    OFFSET 0.31062601459999983 -0.08126270900000132 0.15443142000000007
                    CHANNELS 3 Yrotation Xrotation Zrotation
                    JOINT leftThumbDistal
                    {
                      OFFSET 0.21627175790000086 -0.08833193599999878 0.018771167799999988
                      CHANNELS 3 Yrotation Xrotation Zrotation
                      End Site
                      {
                        OFFSET 0.21627175790000086 -0.08833193599999878 0.018771167799999988
                      }
                    }
                  }
                }
              }
            }
          }
        }
        JOINT neck
        {
          OFFSET 0 1.5463305265074576 0
          CHANNELS 3 Yrotation Xrotation Zrotation
          JOINT head
          {
            OFFSET 0 0.8456443600000344 0
            CHANNELS 3 Yrotation Xrotation Zrotation
            JOINT leftEye
            {
              OFFSET 0.30408573140000006 0.5104519199999995 0.1276382305
              CHANNELS 3 Yrotation Xrotation Zrotation
              End Site
              {
                OFFSET 0.30408573140000006 0.5104519199999995 0.1276382305
              }
            }
            JOINT rightEye
            {
              OFFSET -0.30409491089999996 0.5104519199999995 0.1276379445
              CHANNELS 3 Yrotation Xrotation Zrotation
              End Site
              {
                OFFSET -0.30409491089999996 0.5104519199999995 0.1276379445
              }
            }
            JOINT jaw
            {
              OFFSET -3.155239131000001e-7 -0.11984121820000082 0.60178107
              CHANNELS 3 Yrotation Xrotation Zrotation
              End Site
              {
                OFFSET -3.155239131000001e-7 -0.11984121820000082 0.60178107
              }
            }
          }
        }
        JOINT rightShoulder
        {
          OFFSET -0.1807303465 1.5087829790000005 0
          CHANNELS 3 Yrotation Xrotation Zrotation
          JOINT rightUpperArm
          {
            OFFSET -0.5985063796536958 0 0
            CHANNELS 3 Yrotation Xrotation Zrotation
            JOINT rightLowerArm
            {
              OFFSET -2.2993322059002854 0 0
              CHANNELS 3 Yrotation Xrotation Zrotation
              JOINT rightHand
              {
                OFFSET -2.395045314457259 0 0
                CHANNELS 3 Yrotation Xrotation Zrotation
                JOINT rightIndexProximal
                {
                  OFFSET -0.5764487688300002 0.0441371204405987 0.17361932004999997
                  CHANNELS 3 Yrotation Xrotation Zrotation
                  JOINT rightIndexIntermediate
                  {
                    OFFSET -0.29573011380000047 -0.01934826376999843 -0.007698921482999974
                    CHANNELS 3 Yrotation Xrotation Zrotation
                    JOINT rightIndexDistal
                    {
                      OFFSET -0.19008373999999884 -0.012503266380000655 -0.0026365778999999897
                      CHANNELS 3 Yrotation Xrotation Zrotation
                      End Site
                      {
                        OFFSET -0.19008373999999884 -0.012503266380000655 -0.0026365778999999897
                      }
                    }
                  }
                }
                JOINT rightMiddleProximal
                {
                  OFFSET -0.5834852037300005 0.05211639405060153 0.02307162440000001
                  CHANNELS 3 Yrotation Xrotation Zrotation
                  JOINT rightMiddleIntermediate
                  {
                    OFFSET -0.33880114510000003 -0.019952774050000954 0.0002455003561999819
                    CHANNELS 3 Yrotation Xrotation Zrotation
                    JOINT rightMiddleDistal
                    {
                      OFFSET -0.20675694929999955 -0.012273788999999091 0.00030209124000002766
                      CHANNELS 3 Yrotation Xrotation Zrotation
                      End Site
                      {
                        OFFSET -0.20675694929999955 -0.012273788999999091 0.00030209124000002766
                      }
                    }
                  }
                }
                JOINT rightLittleProximal
                {
                  OFFSET -0.5346811737299992 -0.011214256288399227 -0.24363941305000003
                  CHANNELS 3 Yrotation Xrotation Zrotation
                  JOINT rightLittleIntermediate
                  {
                    OFFSET -0.21757715980000092 -0.011771559690000988 0.01201554387
                    CHANNELS 3 Yrotation Xrotation Zrotation
                    JOINT rightLittleDistal
                    {
                      OFFSET -0.1475201849000004 -0.00822055339600003 0.006082065407000015
                      CHANNELS 3 Yrotation Xrotation Zrotation
                      End Site
                      {
                        OFFSET -0.1475201849000004 -0.00822055339600003 0.006082065407000015
                      }
                    }
                  }
                }
                JOINT rightRingProximal
                {
                  OFFSET -0.5800810755299999 0.027657985680600072 -0.12066365025000003
                  CHANNELS 3 Yrotation Xrotation Zrotation
                  JOINT rightRingIntermediate
                  {
                    OFFSET -0.26166445029999974 -0.013623118409999302 0.011164098990000045
                    CHANNELS 3 Yrotation Xrotation Zrotation
                    JOINT rightRingDistal
                    {
                      OFFSET -0.17666387530000027 -0.009072900100000503 0.005668185599999959
                      CHANNELS 3 Yrotation Xrotation Zrotation
                      End Site
                      {
                        OFFSET -0.17666387530000027 -0.009072900100000503 0.005668185599999959
                      }
                    }
                  }
                }
                JOINT rightThumbProximal
                {
                  OFFSET -0.10997596379000074 -0.09577489355940072 0.16989765924999997
                  CHANNELS 3 Yrotation Xrotation Zrotation
                  JOINT rightThumbIntermediate
                  {
                    OFFSET -0.31036620999999986 -0.08229339117999834 0.15440884469999996
                    CHANNELS 3 Yrotation Xrotation Zrotation
                    JOINT rightThumbDistal
                    {
                      OFFSET -0.21631306399999906 -0.08825326400000111 0.018656797720000014
                      CHANNELS 3 Yrotation Xrotation Zrotation
                      End Site
                      {
                        OFFSET -0.21631306399999906 -0.08825326400000111 0.018656797720000014
                      }
                    }
                  }
                }
              }
            }
          }
        }
      }
    }
  }
}
MOTION
Frames: 8
Frame Time: 0.03333333333333333
0 11.682712981546562 0 0 0 0 0 0 -5.826343164929014 -0.3712483961610101 -3.6333298826370974 5.838118207697276 0 0 0 0 0 0 0 0 5.826343164929014 0.3712483961610101 -3.6333298826370974 -5.838118207697276 0 0 0 0 0 0 0 -4.610651315171937 0 0 3.0831277533083026 0 0 0 0 0 1.5275236235667615 0 0 0 0 0 0 0 0 0 0 0 0 0 0 0 0 0 0 0 0 0 0 0 0 0 0 0 0 0 0 0 0 0 0 0 0 0 0 0 0 0 0 0 0 0 0 0 0 0 0 0 0 0 0 0 0 1.5275236235667615 0 0 0 0 0 0 0 0 0 0 0 0 0 0 1.5275236235667615 0 0 0 0 0 0 0 0 0 0 0 0 0 0 0 0 0 0 0 0 0 0 0 0 0 0 0 0 0 0 0 0 0 0 0 0 0 0 0 0 0 0 0 0 0 0 0 0 0 0 0 0 0 0 0
-2.685385719331657 -7.925558015561975 5.903658388711559 -130.00048843117474 0 0 -28.490085738070796 -57.73924113324132 30.9959493640026 -160.9364002044004 27.436117296481086 -175.4562341244431 54.73842897224251 23.38041542535039 5.796607082405601 0 0 0 95.16086733695228 -64.72307064082642 -158.29014476119903 161.9618683258455 66.22448625631809 175.4355120993538 -34.18560701968047 -5.317812969806597 5.099532103730124 0 0 0 -2.263831756292318 18.885599709489437 -0.9351951052795212 -18.770946956297454 28.41494382846552 -18.62740291130476 0 0 0 -49.554072727379946 -24.37908873012869 -24.583293829709483 -24.637840100007445 -3.334656004926417 -6.6839858655281 -19.669235880395455 -1.7805290592761995 9.19635218488809 -28.614778993202478 -3.5604552684591577 3.2500054766396502 0 0 0 0 0 0 0 0 0 0 0 0 0 0 0 0 0 0 0 0 0 0 0 0 0 0 0 0 0 0 0 0 0 0 0 0 0 0 0 0 0 0 0 0 0 0 1.5275236235667615 0 -0.24690540733050345 -0.7231830360183497 0.08394010757656924 0 0 0 0 0 0 0 0 0 24.97647468161009 -11.958546086680371 50.816102549118135 17.031376129539662 14.630424037957251 29.76689096196643 67.78190103996951 4.965968550903326 4.879129861749197 -19.28930151979818 5.007040248188802 19.489449221763618 0 0 0 0 0 0 0 0 0 0 0 0 0 0 0 0 0 0 0 0 0 0 0 0 0 0 0 0 0 0 0 0 0 0 0 0 0 0 0 0 0 0 0 0 0
-2.685385719331657 -7.925558015561975 5.903658388711559 -130.00048843117474 0 0 -28.490087264021092 -57.73924113324132 30.9959493640026 -160.9364002044004 27.436117296481086 -175.4562341244431 54.73842897224251 23.38041542535039 5.796607082405601 0 0 0 95.16086733695228 -64.72307064082642 -158.29014476119903 161.9618683258455 66.22448625631809 175.4355128177994 -34.185611784085665 -5.317812541074482 5.099532957800323 0 0 0 -2.263831756292318 18.885599709489437 -0.9351951052795212 -18.770946956297454 28.41494382846552 -18.62740291130476 0 0 0 -49.554072727379946 -24.37908873012869 -24.583293829709483 -24.637840100007445 -3.334656004926417 -6.6839858655281 -20.884701756359057 -1.669296712671007 8.824149070690156 -28.614780495087945 -3.5604556961715392 3.2500063306885925 0 0 0 0 0 0 0 0 0 0 0 0 0 0 0 0 0 0 0 0 0 0 0 0 0 0 0 0 0 0 0 0 0 0 0 0 0 0 0 0 0 0 0 0 0 0 1.5275236235667615 0 -0.7457992291420315 -2.173189907336046 0.2618652221352505 0 0 0 0 0 0 0 0 0 24.97647468161009 -11.958546086680371 50.816102549118135 16.566578059798562 14.888024195116532 29.847447407649685 68.47837941980947 4.940044667255014 4.601289710164255 -18.960448590767363 4.709153211978579 18.945845869006863 0 0 0 0 0 0 0 0 0 0 0 0 0 0 0 0 0 0 0 0 0 0 0 0 0 0 0 0 0 0 0 0 0 0 0 0 0 0 0 0 0 0 0 0 0
-2.685385719331657 -7.925558015561975 5.903658388711559 -130.00048843117474 0 0 -28.490088549681506 -57.73924113324132 30.995952106207756 -160.9363983859734 27.436117296481086 -175.4562331654952 54.73842897224251 23.38041542535039 5.796607082405601 0 0 0 95.16083597250598 -64.72307863882347 -158.2901091214126 161.9618683258455 66.22448625631809 175.4355120993538 -34.18560701968047 -5.317813398538712 5.099532957800323 0 0 0 -2.263831756292318 18.885599709489437 -0.9351951052795212 -18.770946956297454 28.41494382846552 -18.62740291130476 0 0 0 -49.55407558075318 -24.379090604835397 -24.583295534487977 -24.637840100007445 -3.334656004926417 -6.6839858655281 -22.102099353146116 -1.5658756628312183 8.449282512761787 -28.614780495087945 -3.5604552684591577 3.2500054766396502 0 0 0 0 0 0 0 0 0 0 0 0 0 0 0 0 0 0 0 0 0 0 0 0 0 0 0 0 0 0 0 0 0 0 0 0 0 0 0 0 0 0 0 0 0 0 1.5275236235667615 0 -1.251920072701572 -3.627521530518744 0.4534703931867194 0 0 0 0 0 0 0 0 0 24.97647468161009 -11.958546086680371 50.816102549118135 16.10143552917297 15.146344804150122 29.925962600480762 69.17543021132688 4.917474947544305 4.322975029295661 -18.62870931346811 4.414213109531177 18.400430113365363 0 0 0 0 0 0 0 0 0 0 0 0 0 0 0 0 0 0 0 0 0 0 0 0 0 0 0 0 0 0 0 0 0 0 0 0 0 0 0 0 0 0 0 0 0
-2.685385719331657 -7.925558015561975 5.903658388711559 -130.00048843117474 0 0 -28.490084452410144 -57.73924753126609 30.995946621797284 -160.9364002044004 27.436117296481086 -175.4562341244431 54.73842897224251 23.38041542535039 5.796607082405601 0 0 0 95.1608486949757 -64.72307064082642 -158.2901154168581 161.96187165100676 66.22448625631809 175.4355142103714 -34.18560225527541 -5.317812112342367 5.099531249659924 0 0 0 -2.26383161371726 18.88559790478926 -0.9351950488901519 -18.770946956297454 28.41494382846552 -18.62740291130476 0 0 0 -49.554072727379946 -24.37908685542201 -24.58329212493095 -24.637840100007445 -3.334656004926417 -6.6839858655281 -23.3211006699895 -1.4703659012750776 8.072010985709559 -28.61477585260274 -3.5604554823153487 3.2500054766396502 0 0 0 0 0 0 0 0 0 0 0 0 0 0 0 0 0 0 0 0 0 0 0 0 0 0 0 0 0 0 0 0 0 0 0 0 0 0 0 0 0 0 0 0 0 0 1.5275236235667615 0 -1.7658268670515331 -5.0855300858862025 0.6591267310822614 0 0 0 0 0 0 0 0 0 24.976466878823587 -11.958546086680371 50.81609763771841 15.635934146881658 15.405347693837212 30.002411506217605 69.87295055245106 4.898268043832208 4.044245375425155 -18.29412148417725 4.122289390808089 17.853235219585756 0 0 0 0 0 0 0 0 0 0 0 0 0 0 0 0 0 0 0 0 0 0 0 0 0 0 0 0 0 0 0 0 0 0 0 0 0 0 0 0 0 0 0 0 0
-2.685385719331657 -7.925558015561975 5.903658388711559 -130.00048843117474 0 0 -28.490085738070796 -57.73924113324132 30.9959493640026 -160.93640509804084 27.436117296481086 -175.45623556286498 54.73842897224251 23.38041542535039 5.796607082405601 0 0 0 95.16086733695228 -64.72307064082642 -158.29014476119903 161.9618683258455 66.22448625631809 175.4355120993538 -34.18560701968047 -5.317812969806597 5.099532103730124 0 0 0 -2.26383161371726 18.885596100089103 -0.9351949335899317 -18.770946956297454 28.41494382846552 -18.627401071562115 0 0 0 -49.554072727379946 -24.37908685542201 -24.58329212493095 -24.637840100007445 -3.334656004926417 -6.6839858655281 -24.541347923998362 -1.3828559972808514 7.6925884951918695 -28.614778993202478 -3.5604552684591577 3.2500054766396502 0 0 0 0 0 0 0 0 0 0 0 0 0 0 0 0 0 0 0 0 0 0 0 0 0 0 0 0 0 0 0 0 0 0 0 0 0 0 0 0 0 0 0 0 0 0 1.5275236235667615 0 -2.288099987296087 -6.546547222114768 0.8792345854694799 0 0 0 0 0 0 0 0 0 24.97646846102043 -11.958545213966897 50.816099843280206 15.170093734525274 15.665007003618241 30.07679662716143 70.57090336225227 4.882436088276201 3.7651715657471376 -17.95672268909181 3.833442919219481 17.304293501046146 0 0 0 0 0 0 0 0 0 0 0 0 0 0 0 0 0 0 0 0 0 0 0 0 0 0 0 0 0 0 0 0 0 0 0 0 0 0 0 0 0 0 0 0 0
-2.685385719331657 -7.925558015561975 5.903658388711559 -130.00048843117474 0 0 -28.490085738070796 -57.73924113324132 30.9959493640026 -160.9364002044004 27.436117296481086 -175.4562341244431 54.73842897224251 23.38041542535039 5.796607082405601 0 0 0 95.1608486949757 -64.72307064082642 -158.2901154168581 161.9618683258455 66.22448625631809 175.4355120993538 -34.18560701968047 -5.317812969806597 5.099532103730124 0 0 0 -2.26383161371726 18.88559790478926 -0.9351950488901519 -18.770946956297454 28.41494382846552 -18.62740291130476 0 0 0 -49.554072727379946 -24.37908685542201 -24.58329212493095 -24.637840100007445 -3.334656004926417 -6.6839858655281 -25.762497573437873 -1.30342030310772 7.311283243872305 -28.614778993202478 -3.5604552684591577 3.2500054766396502 0 0 0 0 0 0 0 0 0 0 0 0 0 0 0 0 0 0 0 0 0 0 0 0 0 0 0 0 0 0 0 0 0 0 0 0 0 0 0 0 0 0 0 0 0 0 1.5275236235667615 0 -2.8193475578231064 -8.009883362237034 1.1142250160765943 0 0 0 0 0 0 0 0 0 24.97646846102043 -11.958545213966897 50.816099843280206 14.703905699476975 15.925298599767288 30.149097455203943 71.26920849713876 4.869989979491122 3.4858165116175304 -17.61655743354401 3.5477390393381225 16.75363969991624 0 0 0 0 0 0 0 0 0 0 0 0 0 0 0 0 0 0 0 0 0 0 0 0 0 0 0 0 0 0 0 0 0 0 0 0 0 0 0 0 0 0 0 0 0
-2.685385719331657 -7.925558015561975 5.903658388711559 -130.00048843117474 0 0 -28.490085738070796 -57.73924113324132 30.9959493640026 -160.9364002044004 27.436117296481086 -175.4562341244431 54.73842897224251 23.38041542535039 5.796607082405601 0 0 0 95.16086733695228 -64.72307064082642 -158.29014476119903 161.9618683258455 66.22448625631809 175.4355120993538 -34.18560701968047 -5.317812969806597 5.099532103730124 0 0 0 -2.26383161371726 18.88559790478926 -0.9351950488901519 -18.770950043938246 28.414945769909256 -18.62740599129056 0 0 0 -49.554072727379946 -24.37908873012869 -24.58329212493095 -24.637840100007445 -3.334656004926417 -6.6839858655281 -26.98419074584206 -1.2321253400663215 6.928355947846162 -28.614778993202478 -3.5604552684591577 3.2500054766396502 0 0 0 0 0 0 0 0 0 0 0 0 0 0 0 0 0 0 0 0 0 0 0 0 0 0 0 0 0 0 0 0 0 0 0 0 0 0 0 0 0 0 0 0 0 0 1.5275236235667615 0 -3.360199327499645 -9.474840648296954 1.3645625599607998 0 0 0 0 0 0 0 0 0 24.97647468161009 -11.958546086680371 50.816102549118135 14.23737351733636 16.186192968685965 30.21929151469653 71.96774826185104 4.860933812867125 3.2062439230946667 -17.273659749586262 3.265235175951992 16.20129963677899 0 0 0 0 0 0 0 0 0 0 0 0 0 0 0 0 0 0 0 0 0 0 0 0 0 0 0 0 0 0 0 0 0 0 0 0 0 0 0 0 0 0 0 0 0
